<svg width="37" height="13" viewBox="0 0 37 13" fill="none" xmlns="http://www.w3.org/2000/svg">
<path d="M0.768 6.4C0.768 5.30133 1.008 4.32 1.488 3.456C1.968 2.58133 2.624 1.904 3.456 1.424C4.288 0.933333 5.216 0.688 6.24 0.688C7.488 0.688 8.55467 0.986666 9.44 1.584C10.336 2.17067 10.9867 3.00267 11.392 4.08H10.08C9.76 3.32267 9.26933 2.73067 8.608 2.304C7.95733 1.87733 7.168 1.664 6.24 1.664C5.41867 1.664 4.67733 1.856 4.016 2.24C3.36533 2.624 2.85333 3.17867 2.48 3.904C2.10667 4.61867 1.92 5.45067 1.92 6.4C1.92 7.34933 2.10667 8.18133 2.48 8.896C2.85333 9.61067 3.36533 10.16 4.016 10.544C4.67733 10.928 5.41867 11.12 6.24 11.12C7.168 11.12 7.95733 10.912 8.608 10.496C9.26933 10.0693 9.76 9.48267 10.08 8.736H11.392C10.9867 9.80267 10.336 10.6293 9.44 11.216C8.544 11.8027 7.47733 12.096 6.24 12.096C5.216 12.096 4.288 11.856 3.456 11.376C2.624 10.8853 1.968 10.208 1.488 9.344C1.008 8.48 0.768 7.49867 0.768 6.4ZM18.6478 12.112C17.6131 12.112 16.6744 11.872 15.8318 11.392C14.9891 10.9013 14.3224 10.224 13.8318 9.36C13.3518 8.48533 13.1118 7.49867 13.1118 6.4C13.1118 5.30133 13.3518 4.32 13.8318 3.456C14.3224 2.58133 14.9891 1.904 15.8318 1.424C16.6744 0.933333 17.6131 0.688 18.6478 0.688C19.6931 0.688 20.6371 0.933333 21.4798 1.424C22.3224 1.904 22.9838 2.58133 23.4638 3.456C23.9438 4.32 24.1838 5.30133 24.1838 6.4C24.1838 7.49867 23.9438 8.48533 23.4638 9.36C22.9838 10.224 22.3224 10.9013 21.4798 11.392C20.6371 11.872 19.6931 12.112 18.6478 12.112ZM18.6478 11.136C19.4798 11.136 20.2264 10.944 20.8878 10.56C21.5491 10.176 22.0718 9.62667 22.4558 8.912C22.8398 8.18667 23.0318 7.34933 23.0318 6.4C23.0318 5.45067 22.8398 4.61867 22.4558 3.904C22.0718 3.18933 21.5491 2.64 20.8878 2.256C20.2264 1.872 19.4798 1.68 18.6478 1.68C17.8158 1.68 17.0691 1.872 16.4078 2.256C15.7464 2.64 15.2238 3.18933 14.8398 3.904C14.4558 4.61867 14.2638 5.45067 14.2638 6.4C14.2638 7.34933 14.4558 8.18667 14.8398 8.912C15.2238 9.62667 15.7464 10.176 16.4078 10.56C17.0691 10.944 17.8158 11.136 18.6478 11.136ZM31.2571 12.112C30.2225 12.112 29.2838 11.872 28.4411 11.392C27.5985 10.9013 26.9318 10.224 26.4411 9.36C25.9611 8.48533 25.7211 7.49867 25.7211 6.4C25.7211 5.30133 25.9611 4.32 26.4411 3.456C26.9318 2.58133 27.5985 1.904 28.4411 1.424C29.2838 0.933333 30.2225 0.688 31.2571 0.688C32.3025 0.688 33.2465 0.933333 34.0891 1.424C34.9318 1.904 35.5931 2.58133 36.0731 3.456C36.5531 4.32 36.7931 5.30133 36.7931 6.4C36.7931 7.49867 36.5531 8.48533 36.0731 9.36C35.5931 10.224 34.9318 10.9013 34.0891 11.392C33.2465 11.872 32.3025 12.112 31.2571 12.112ZM31.2571 11.136C32.0891 11.136 32.8358 10.944 33.4971 10.56C34.1585 10.176 34.6811 9.62667 35.0651 8.912C35.4491 8.18667 35.6411 7.34933 35.6411 6.4C35.6411 5.45067 35.4491 4.61867 35.0651 3.904C34.6811 3.18933 34.1585 2.64 33.4971 2.256C32.8358 1.872 32.0891 1.68 31.2571 1.68C30.4251 1.68 29.6785 1.872 29.0171 2.256C28.3558 2.64 27.8331 3.18933 27.4491 3.904C27.0651 4.61867 26.8731 5.45067 26.8731 6.4C26.8731 7.34933 27.0651 8.18667 27.4491 8.912C27.8331 9.62667 28.3558 10.176 29.0171 10.56C29.6785 10.944 30.4251 11.136 31.2571 11.136Z" fill="#E8E8E8"/>
</svg>
